HIERARCHY
ROOT Hips
{
	OFFSET -0.179506 -22.333345 2.821913
	CHANNELS 6 Xposition Yposition Zposition Zrotation Yrotation Xrotation 
	JOINT LeftUpLeg
	{
		OFFSET 6.951974 -9.140623 -0.681533
		CHANNELS 3 Zrotation Yrotation Xrotation
		JOINT LeftLeg
		{
			OFFSET 3.427654 -37.519855 -0.449580
			CHANNELS 3 Zrotation Yrotation Xrotation
			JOINT LeftFoot
			{
				OFFSET -1.359570 -39.796059 -4.369333
				CHANNELS 3 Zrotation Yrotation Xrotation
				JOINT LeftToe
				{
					OFFSET 2.635814 -5.579078 11.928840
					CHANNELS 3 Zrotation Yrotation Xrotation
					End Site
					{
						OFFSET 0.000000 0.000000 0.000000
					}
				}
			}
		}
	}
	JOINT RightUpLeg
	{
		OFFSET -6.767048 -9.052170 -0.431982
		CHANNELS 3 Zrotation Yrotation Xrotation
		JOINT RightLeg
		{
			OFFSET -3.829005 -38.256897 -0.885003
			CHANNELS 3 Zrotation Yrotation Xrotation
			JOINT RightFoot
			{
				OFFSET 1.577377 -39.841461 -4.231180
				CHANNELS 3 Zrotation Yrotation Xrotation
				JOINT RightToe
				{
					OFFSET -2.537174 -4.814398 12.334795
					CHANNELS 3 Zrotation Yrotation Xrotation
					End Site
					{
						OFFSET 0.000000 0.000000 0.000000
					}
				}
			}
		}
	}
	JOINT Spine
	{
		OFFSET -0.253288 10.896323 -2.669631
		CHANNELS 3 Zrotation Yrotation Xrotation
		JOINT Spine1
		{
			OFFSET 0.548704 13.518043 0.109247
			CHANNELS 3 Zrotation Yrotation Xrotation
			JOINT Spine2
			{
				OFFSET 0.145701 5.292222 2.542457
				CHANNELS 3 Zrotation Yrotation Xrotation
				JOINT Neck
				{
					OFFSET -0.277840 21.387037 -4.285703
					CHANNELS 3 Zrotation Yrotation Xrotation
					JOINT Head
					{
						OFFSET 0.515184 6.496960 5.134897
						CHANNELS 3 Zrotation Yrotation Xrotation
						End Site
						{
							OFFSET 0.000000 0.000000 0.000000
						}
					}
				}
				JOINT LeftShoulder
				{
					OFFSET 7.884473 12.174932 -3.408961
					CHANNELS 3 Zrotation Yrotation Xrotation
					JOINT LeftArm
					{
						OFFSET 9.097692 3.046888 -0.886815
						CHANNELS 3 Zrotation Yrotation Xrotation
						JOINT LeftForeArm
						{
							OFFSET 25.961220 -1.277207 -2.745643
							CHANNELS 3 Zrotation Yrotation Xrotation
							JOINT LeftHand
							{
								OFFSET 24.923361 0.898606 -0.117091
								CHANNELS 3 Zrotation Yrotation Xrotation
								End Site
								{
									OFFSET 0.000000 0.000000 0.000000
								}
							}
						}
					}
				}
				JOINT RightShoulder
				{
					OFFSET -8.175920 11.883285 -3.861528
					CHANNELS 3 Zrotation Yrotation Xrotation
					JOINT RightArm
					{
						OFFSET -9.601238 3.255117 -0.914307
						CHANNELS 3 Zrotation Yrotation Xrotation
						JOINT RightForeArm
						{
							OFFSET -25.374195 -1.332924 -2.140099
							CHANNELS 3 Zrotation Yrotation Xrotation
							JOINT RightHand
							{
								OFFSET -25.529810 0.777228 -0.555919
								CHANNELS 3 Zrotation Yrotation Xrotation
								End Site
								{
									OFFSET 0.000000 0.000000 0.000000
								}
							}
						}
					}
				}
			}
		}
	}
}
MOTION
Frames: 10
Frame Time: 0.033333
0.000220 -0.738537 99.293228 176.925820 0.083954 83.905351 5.113669 1.159809 10.862914 -4.099312 -4.810656 -4.678889 3.649545 7.833522 -6.177206 nan nan nan -4.295151 -2.972846 11.113860 3.856077 -0.827873 -3.382593 6.372514 -4.143517 -3.208906 nan nan nan -3.073828 1.970504 5.692474 -0.013495 -2.619952 4.835769 1.611523 -0.600901 1.389730 -3.909163 4.130145 1.355411 1.496107 -1.714569 -0.198348 -26.348463 -1.520684 6.729450 -57.465452 -7.566118 9.124017 8.025088 -20.969307 6.745418 -5.996178 -16.021621 -5.199653 27.495374 6.533191 7.619716 59.175778 4.733637 10.935199 -11.958194 14.198770 -8.123326 1.215435 9.086511 -13.216832 
0.009032 -0.734705 99.291428 176.906996 0.084373 83.889649 5.110512 1.110614 10.895690 -4.091430 -4.783965 -4.695764 3.635423 7.847867 -6.170981 nan nan nan -4.288920 -2.950221 11.143470 3.848209 -0.823137 -3.402809 6.335720 -4.106949 -3.161903 nan nan nan -3.071175 1.962857 5.722146 -0.026228 -2.619269 4.799295 1.607073 -0.597201 1.436368 -3.901279 4.139769 1.313720 1.525673 -1.714171 -0.181691 -26.345948 -1.512165 6.736354 -57.508211 -7.579275 9.099050 8.081317 -21.038347 6.739914 -5.944838 -15.955335 -5.291033 27.479373 6.550925 7.636067 59.174516 4.775571 10.967499 -11.920313 14.178035 -8.064545 1.180861 9.018257 -13.245809 
0.009789 -0.730717 99.283798 176.888148 0.071938 83.909934 5.087598 1.088117 10.880383 -4.088144 -4.743406 -4.693358 3.633194 7.873770 -6.166090 nan nan nan -4.303709 -2.934806 11.122788 3.855298 -0.793614 -3.394290 6.333588 -4.100163 -3.211206 nan nan nan -3.066907 1.955203 5.699806 -0.038314 -2.619239 4.802704 1.590789 -0.588335 1.462989 -3.901832 4.169902 1.243953 1.516068 -1.684151 -0.173727 -26.370146 -1.496261 6.725131 -57.535599 -7.589716 9.038816 8.146903 -21.061828 6.624078 -5.977436 -16.000243 -5.331315 27.492733 6.575372 7.659200 59.136050 4.800657 10.985156 -11.891537 14.185446 -8.036260 1.139601 9.018892 -13.155339 
0.010188 -0.724397 99.276367 176.879110 0.087120 83.933025 5.086448 1.068322 10.857423 -4.053633 -4.729345 -4.694772 3.634118 7.885851 -6.154338 nan nan nan -4.296118 -2.942657 11.099271 3.885643 -0.779693 -3.376905 6.358982 -4.112007 -3.234340 nan nan nan -3.031284 1.962652 5.650673 -0.040996 -2.603613 4.849858 1.587755 -0.606826 1.460201 -3.905853 4.126120 1.211027 1.473223 -1.671934 -0.216020 -26.405784 -1.503291 6.737279 -57.548048 -7.588012 9.022788 8.200013 -21.119195 6.554629 -5.943038 -15.964140 -5.316859 27.470538 6.590258 7.669507 59.103087 4.802737 10.977667 -11.859079 14.223221 -8.054555 1.116394 8.994608 -13.131526 
0.016911 -0.716633 99.272263 176.898845 0.107436 83.931543 5.125413 1.053509 10.866368 -4.069573 -4.714672 -4.722206 3.643375 7.874701 -6.127999 nan nan nan -4.266595 -2.955493 11.116789 3.892045 -0.761102 -3.390552 6.396990 -4.083925 -3.169485 nan nan nan -3.008895 1.968893 5.656864 -0.029779 -2.589182 4.859995 1.599908 -0.631380 1.431418 -3.924071 4.073239 1.219678 1.449271 -1.624476 -0.255602 -26.439307 -1.524423 6.786202 -57.577117 -7.583995 9.030364 8.241163 -21.177307 6.498278 -5.780401 -15.874860 -5.396004 27.430587 6.578835 7.660757 59.099352 4.803596 10.977473 -11.817406 14.229514 -8.088191 1.068236 8.958936 -13.216591 
0.018666 -0.715006 99.271980 176.958420 0.124800 83.926705 5.183039 1.081974 10.862444 -4.127231 -4.745515 -4.722136 3.636049 7.831307 -6.152966 nan nan nan -4.239315 -2.960855 11.156885 3.902158 -0.766457 -3.446607 6.402432 -4.136173 -3.152824 nan nan nan -3.002743 1.932944 5.687114 -0.008036 -2.598680 4.849767 1.594425 -0.623742 1.422477 -3.911070 4.032948 1.197536 1.414449 -1.600549 -0.266567 -26.469375 -1.517685 6.798727 -57.605223 -7.623783 9.012646 8.217007 -21.207758 6.415936 -5.553586 -15.753391 -5.562664 27.438086 6.539302 7.605704 59.046310 4.817543 10.992040 -11.772113 14.232908 -8.070238 1.029408 8.873329 -13.299743 
0.023996 -0.715383 99.269310 176.961717 0.110872 83.959043 5.192098 1.137482 10.807577 -4.161071 -4.748917 -4.686559 3.641929 7.806174 -6.159623 nan nan nan -4.244295 -2.981924 11.111082 3.884028 -0.776568 -3.440826 6.379357 -4.159219 -3.207230 nan nan nan -3.003392 1.924744 5.675435 -0.011060 -2.599033 4.827733 1.573692 -0.614701 1.416323 -3.875797 3.988619 1.192305 1.403502 -1.598576 -0.286919 -26.477232 -1.480648 6.745108 -57.650485 -7.644270 9.000604 8.179742 -21.181991 6.256853 -5.336063 -15.668533 -5.715347 27.431496 6.507017 7.575120 59.029678 4.814491 10.998995 -11.771035 14.251127 -8.114719 1.032760 8.864280 -13.341784 
0.030976 -0.714295 99.270348 176.930389 0.099344 83.967565 5.167657 1.176088 10.794945 -4.141943 -4.738003 -4.665116 3.697569 7.824915 -6.179120 nan nan nan -4.262261 -3.002462 11.085832 3.881746 -0.753016 -3.417508 6.357194 -4.156279 -3.264341 nan nan nan -3.006245 1.935346 5.667166 -0.007290 -2.580675 4.822180 1.558742 -0.608639 1.427989 -3.856508 3.945430 1.189265 1.394347 -1.611066 -0.250084 -26.473073 -1.446585 6.703985 -57.703083 -7.673766 9.020948 8.159098 -21.208607 6.179290 -5.140567 -15.609870 -5.768570 27.424485 6.485159 7.548573 59.021754 4.830837 11.019195 -11.773050 14.250779 -8.109336 1.033955 8.838404 -13.295127 
0.047029 -0.713809 99.271881 176.892103 0.062686 83.957712 5.128653 1.239355 10.818318 -4.132089 -4.728844 -4.670871 3.731277 7.844780 -6.153828 nan nan nan -4.301708 -3.011358 11.083861 3.883737 -0.703194 -3.388180 6.366160 -4.148286 -3.303897 nan nan nan -3.071620 1.921057 5.676681 -0.007518 -2.558033 4.823907 1.568354 -0.586710 1.451507 -3.838220 3.982232 1.167423 1.475850 -1.664156 -0.260633 -26.419540 -1.427454 6.712040 -57.779989 -7.678343 9.028803 8.167913 -21.311345 6.142773 -5.091985 -15.660681 -5.747671 27.428636 6.531785 7.565512 59.022446 4.874679 11.017468 -11.780752 14.222894 -8.123748 1.049100 8.824273 -13.267104 
0.065559 -0.708274 99.275894 176.889971 0.037647 83.938396 5.108560 1.191520 10.855170 -4.138953 -4.717058 -4.688108 3.743633 7.868146 -6.152456 nan nan nan -4.319974 -3.004204 11.101981 3.891171 -0.731874 -3.375990 6.376507 -4.170072 -3.332439 nan nan nan -3.103569 1.887550 5.725232 -0.031694 -2.563119 4.778060 1.580735 -0.563826 1.460978 -3.777678 4.043785 1.127411 1.531225 -1.601710 -0.161282 -26.391831 -1.413758 6.757368 -57.820192 -7.677340 8.987319 8.162140 -21.373216 6.160226 -5.034115 -15.752115 -5.805349 27.406060 6.571466 7.605548 59.065083 4.897734 11.030185 -11.802131 14.194094 -8.124279 1.082946 8.849066 -13.366931 
